<svg width="1487" height="653" viewBox="0 0 1487 653" fill="none" xmlns="http://www.w3.org/2000/svg">
<path opacity="0.0946098" d="M248.646 566.268L314.135 438.606C318.192 430.697 317.722 421.189 312.896 413.718L234.921 293.107C230.068 285.622 221.602 281.28 212.718 281.718L69.2686 288.741C60.3713 289.207 52.3889 294.344 48.3318 302.253L-17.1569 429.915C-21.2141 437.824 -20.7445 447.332 -15.9184 454.803L62.0568 575.414C66.8829 582.885 75.3488 587.228 84.2594 586.804L227.709 579.78C236.592 579.342 244.589 574.177 248.646 566.268Z" fill="url(#paint0_linear_132_15)"/>
<path opacity="0.0946098" d="M1182 94.8543L1151.78 235.116C1149.91 243.806 1152.83 252.868 1159.42 258.835L1265.96 355.155C1272.58 361.129 1281.88 363.133 1290.35 360.41L1427.09 316.498C1435.57 313.746 1441.95 306.717 1443.82 298.028L1474.04 157.766C1475.91 149.076 1472.99 140.014 1466.4 134.047L1359.86 37.7271C1353.27 31.7599 1343.97 29.7561 1335.47 32.472L1198.72 76.3839C1190.26 79.1063 1183.87 86.1647 1182 94.8543Z" fill="url(#paint1_linear_132_15)"/>
<path opacity="0.0946098" d="M435.138 578.224L466.896 516.316C468.869 512.471 468.64 507.874 466.287 504.256L428.476 445.76C426.123 442.142 422.027 440.04 417.716 440.24L348.147 443.652C343.835 443.852 339.954 446.374 337.996 450.192L306.238 512.1C304.265 515.946 304.495 520.542 306.847 524.16L344.659 582.656C347.011 586.275 351.107 588.376 355.418 588.176L424.988 584.764C429.272 584.55 433.18 582.042 435.138 578.224Z" fill="url(#paint2_linear_132_15)"/>
<path opacity="0.0946098" d="M998.766 131.573L984.114 199.592C983.204 203.817 984.615 208.197 987.823 211.083L1039.49 257.8C1042.7 260.686 1047.2 261.656 1051.31 260.347L1117.62 239.045C1121.74 237.736 1124.83 234.296 1125.74 230.101L1140.39 162.082C1141.3 157.857 1139.89 153.477 1136.68 150.591L1085.02 103.874C1081.81 100.988 1077.31 100.019 1073.19 101.328L1006.88 122.629C1002.8 123.944 999.67 127.378 998.766 131.573Z" fill="url(#paint3_linear_132_15)"/>
<path opacity="0.0946098" d="M383.022 410.971L398.075 381.626C399.013 379.798 398.883 377.63 397.802 375.905L379.876 348.175C378.754 346.463 376.815 345.468 374.769 345.556L341.79 347.172C339.745 347.259 337.921 348.46 336.984 350.287L321.93 379.632C320.993 381.459 321.123 383.627 322.204 385.353L340.129 413.082C341.252 414.795 343.191 415.789 345.236 415.702L378.216 414.086C380.248 413.957 382.084 412.798 383.022 410.971Z" fill="url(#paint4_linear_132_15)"/>
<path opacity="0.0946098" d="M1092.4 279.639L1085.45 311.88C1085.02 313.888 1085.7 315.948 1087.19 317.335L1111.69 339.48C1113.21 340.844 1115.34 341.303 1117.3 340.689L1148.73 330.593C1150.69 329.979 1152.14 328.347 1152.57 326.34L1159.52 294.098C1159.95 292.091 1159.26 290.03 1157.77 288.643L1133.28 266.498C1131.75 265.134 1129.62 264.675 1127.67 265.289L1096.23 275.386C1094.3 276.036 1092.83 277.631 1092.4 279.639Z" fill="url(#paint5_linear_132_15)"/>
<defs>
<linearGradient id="paint0_linear_132_15" x1="225.334" y1="284.447" x2="71.6256" y2="584.083" gradientUnits="userSpaceOnUse">
<stop stop-color="#D4145A"/>
<stop offset="1" stop-color="#2E3192"/>
</linearGradient>
<linearGradient id="paint1_linear_132_15" x1="1277.46" y1="361.039" x2="1348.38" y2="31.8301" gradientUnits="userSpaceOnUse">
<stop stop-color="#D4145A"/>
<stop offset="1" stop-color="#2E3192"/>
</linearGradient>
<linearGradient id="paint2_linear_132_15" x1="423.83" y1="441.506" x2="349.272" y2="586.847" gradientUnits="userSpaceOnUse">
<stop stop-color="#D4145A"/>
<stop offset="1" stop-color="#2E3192"/>
</linearGradient>
<linearGradient id="paint3_linear_132_15" x1="1045.08" y1="260.707" x2="1079.48" y2="101.02" gradientUnits="userSpaceOnUse">
<stop stop-color="#D4145A"/>
<stop offset="1" stop-color="#2E3192"/>
</linearGradient>
<linearGradient id="paint4_linear_132_15" x1="377.662" y1="346.178" x2="342.324" y2="415.064" gradientUnits="userSpaceOnUse">
<stop stop-color="#D4145A"/>
<stop offset="1" stop-color="#2E3192"/>
</linearGradient>
<linearGradient id="paint5_linear_132_15" x1="1114.34" y1="340.836" x2="1130.65" y2="265.151" gradientUnits="userSpaceOnUse">
<stop stop-color="#D4145A"/>
<stop offset="1" stop-color="#2E3192"/>
</linearGradient>
</defs>
</svg>
